<?xml version="1.0" standalone="no"?>
<!DOCTYPE svg PUBLIC "-//W3C//DTD SVG 20010904//EN"
 "http://www.w3.org/TR/2001/REC-SVG-20010904/DTD/svg10.dtd">
<svg version="1.0" xmlns="http://www.w3.org/2000/svg"
 width="862.000000pt" height="1024.000000pt" viewBox="0 0 862.000000 1024.000000"
 preserveAspectRatio="xMidYMid meet">

<g transform="translate(0.000000,1024.000000) scale(0.100000,-0.100000)"
fill="red" stroke="none">
<path d="M3592 10230 c-404 -35 -798 -265 -1011 -589 -79 -121 -111 -201 -187
-479 -37 -130 -75 -252 -86 -270 -11 -18 -41 -45 -66 -60 l-47 -27 -895 -5
-895 -5 -67 -26 c-136 -53 -231 -136 -288 -252 -116 -239 12 -525 280 -624 53
-20 55 -22 58 -59 1 -22 63 -1553 136 -3404 74 -1851 139 -3412 145 -3470 21
-225 112 -418 275 -589 173 -181 386 -294 651 -348 86 -17 219 -18 2715 -18
2496 0 2629 1 2715 18 517 104 882 474 926 937 6 58 71 1619 145 3470 73 1851
135 3382 136 3404 3 37 5 39 58 59 266 98 394 382 281 622 -53 113 -153 201
-289 254 l-67 26 -895 5 -895 5 -47 27 c-25 15 -55 42 -66 60 -11 18 -49 140
-86 270 -76 278 -108 358 -187 479 -155 235 -410 426 -700 523 -204 69 -199
68 -964 71 -379 2 -732 -1 -783 -5z m1403 -961 c34 -13 73 -38 103 -67 47 -46
50 -52 90 -198 24 -84 40 -158 36 -168 -4 -10 -18 -22 -31 -27 -33 -12 -1734
-12 -1766 0 -14 6 -28 18 -31 29 -8 25 70 298 95 333 25 35 96 85 147 104 30
11 159 14 669 14 616 1 634 0 688 -20z m-2350 -2310 c141 -26 258 -126 297
-253 9 -30 157 -4429 158 -4676 0 -117 -2 -129 -29 -185 -139 -295 -610 -271
-714 36 -13 39 -28 435 -93 2420 l-77 2374 22 57 c30 77 97 150 174 188 96 47
165 57 262 39z m1736 1 c131 -24 247 -116 288 -226 21 -55 21 -58 21 -2434 0
-2376 0 -2379 -21 -2434 -42 -114 -160 -204 -297 -225 -179 -28 -364 71 -421
225 -21 55 -21 58 -21 2434 0 2376 0 2379 21 2434 48 129 197 228 350 235 15
1 51 -4 80 -9z m1812 -20 c108 -41 192 -125 223 -225 17 -52 14 -142 -60
-2421 -64 -1978 -80 -2374 -93 -2413 -44 -129 -155 -217 -306 -241 -166 -26
-340 61 -408 205 -27 56 -29 68 -29 185 1 247 149 4646 158 4676 62 203 303
313 515 234z"/>
</g>
</svg>
